<svg xmlns="http://www.w3.org/2000/svg" viewBox="0 0 512 512"><rect width="512" height="384" y="64" fill="#B0BEC9"/><rect width="480" height="112" x="16" y="80.3" fill="#0094CE"/><rect width="480" height="112" x="16" y="320" fill="#FFF"/><rect width="480" height="128" x="16" y="192" fill="#4C4C4E"/><rect width="512" height="384" y="64" fill="#B0BEC9"/><rect width="480" height="352" x="16" y="80" fill="#E03232"/><polygon fill="#75BD4A" points="256 295.7 441.9 432 496 432 496 392.3 310.1 256 496 119.7 496 80 441.9 80 256 216.3 70.1 80 16 80 16 119.7 201.9 256 16 392.3 16 432 70.1 432"/><polygon fill="#FFF" points="496 224 288 224 288 80 224 80 224 224 16 224 16 288 224 288 224 432 288 432 288 288 496 288"/></svg>