<svg xmlns="http://www.w3.org/2000/svg" viewBox="0 0 512 512"><path d="M448 288h-288c-17.6 0-32-14.4-32-32v0c0-17.6 14.4-32 32-32h288c17.6 0 32 14.4 32 32v0c0 17.6-14.4 32-32 32z" class="lexicon-icon-outline list-ul-item-2"/><path d="M448 512h-288c-17.6 0-32-14.4-32-32v0c0-17.6 14.4-32 32-32h288c17.6 0 32 14.4 32 32v0c0 17.6-14.4 32-32 32z" class="lexicon-icon-outline list-ul-item-3"/><path d="M448 64h-288c-17.6 0-32-14.4-32-32v0c0-17.6 14.4-32 32-32h288c17.6 0 32 14.4 32 32v0c0 17.6-14.4 32-32 32z" class="lexicon-icon-outline list-ul-item-1"/><path d="M64 256c0 17.673-14.327 32-32 32s-32-14.327-32-32c0-17.673 14.327-32 32-32s32 14.327 32 32z" class="lexicon-icon-outline list-ul-bullet-2"/><path d="M64 32c0 17.673-14.327 32-32 32s-32-14.327-32-32c0-17.673 14.327-32 32-32s32 14.327 32 32z" class="lexicon-icon-outline list-ul-bullet-1"/><path d="M64 480c0 17.673-14.327 32-32 32s-32-14.327-32-32c0-17.673 14.327-32 32-32s32 14.327 32 32z" class="lexicon-icon-outline list-ul-bullet-3"/></svg>