<svg xmlns="http://www.w3.org/2000/svg" viewBox="0 0 512 512"><rect width="512" height="384" y="64" fill="#B0BEC9"/><rect width="480" height="352" x="16" y="80" fill="#0035A0"/><rect width="48" height="192" x="88" y="80" fill="#FFF"/><rect width="192" height="48" x="16" y="152" fill="#FFF"/><rect width="192" height="48" x="16" y="152" fill="#FFF"/><rect width="32" height="192" x="96" y="80" fill="#E03232"/><rect width="192" height="32" x="16" y="160" fill="#E03232"/><polygon fill="#E03232" points="27.3 80 16 80 16 91.3 196.7 272 208 272 208 260.7"/><polygon fill="#E03232" points="208 91.3 208 80 196.7 80 16 260.7 16 272 27.3 272"/><rect width="16" height="16" x="384" y="272" fill="#FFF"/><rect width="32" height="32" x="96" y="336" fill="#FFF"/><rect width="32" height="32" x="288" y="112" fill="#FFF"/><rect width="32" height="32" x="272" y="240" fill="#FFF"/><rect width="32" height="32" x="400" y="176" fill="#FFF"/></svg>