<svg xmlns="http://www.w3.org/2000/svg" viewBox="0 0 512 512"><path d="M319 255.5c0 35.346-28.654 64-64 64s-64-28.654-64-64c0-35.346 28.654-64 64-64s64 28.654 64 64z" class="lexicon-icon-outline ellipsis-v-dot-2"/><path d="M319 448c0 35.346-28.654 64-64 64s-64-28.654-64-64c0-35.346 28.654-64 64-64s64 28.654 64 64z" class="lexicon-icon-outline ellipsis-v-dot-3"/><path d="M319 64c0 35.346-28.654 64-64 64s-64-28.654-64-64c0-35.346 28.654-64 64-64s64 28.654 64 64z" class="lexicon-icon-outline ellipsis-v-dot-1"/></svg>