<svg xmlns="http://www.w3.org/2000/svg" viewBox="0 0 512 512"><rect width="512" height="384" y="64" fill="#B0BEC9"/><rect width="480" height="96" x="16" y="80" fill="#75BD4A"/><rect width="480" height="96" x="16" y="336" fill="#E03232"/><rect width="480" height="160" x="16" y="176" fill="#FFF"/><rect width="16.6" height="16.6" x="32" y="143.4" fill="#FFF" opacity=".5"/><rect width="16.6" height="16.6" x="65.2" y="143.4" fill="#FFF" opacity=".5"/><rect width="16.6" height="16.6" x="98.4" y="143.4" fill="#FFF" opacity=".5"/><rect width="16.6" height="16.6" x="131.6" y="143.4" fill="#FFF" opacity=".5"/><rect width="16.6" height="16.6" x="164.7" y="143.4" fill="#FFF" opacity=".5"/><rect width="16.6" height="16.6" x="197.9" y="143.4" fill="#FFF" opacity=".5"/><rect width="16.6" height="16.6" x="231.1" y="143.4" fill="#FFF" opacity=".5"/><rect width="16.6" height="16.6" x="264.3" y="143.4" fill="#FFF" opacity=".5"/><rect width="16.6" height="16.6" x="297.5" y="143.4" fill="#FFF" opacity=".5"/><rect width="16.6" height="16.6" x="330.7" y="143.4" fill="#FFF" opacity=".5"/><rect width="16.6" height="16.6" x="363.9" y="143.4" fill="#FFF" opacity=".5"/><rect width="16.6" height="16.6" x="397" y="143.4" fill="#FFF" opacity=".5"/><rect width="16.6" height="16.6" x="430.2" y="143.4" fill="#FFF" opacity=".5"/><rect width="16.6" height="16.6" x="463.4" y="143.4" fill="#FFF" opacity=".5"/><rect width="16.6" height="16.6" x="32" y="352" fill="#FFF" opacity=".5"/><rect width="16.6" height="16.6" x="65.2" y="352" fill="#FFF" opacity=".5"/><rect width="16.6" height="16.6" x="98.4" y="352" fill="#FFF" opacity=".5"/><rect width="16.6" height="16.6" x="131.6" y="352" fill="#FFF" opacity=".5"/><rect width="16.6" height="16.6" x="164.7" y="352" fill="#FFF" opacity=".5"/><rect width="16.6" height="16.6" x="197.9" y="352" fill="#FFF" opacity=".5"/><rect width="16.6" height="16.6" x="231.1" y="352" fill="#FFF" opacity=".5"/><rect width="16.6" height="16.6" x="264.3" y="352" fill="#FFF" opacity=".5"/><rect width="16.6" height="16.6" x="297.5" y="352" fill="#FFF" opacity=".5"/><rect width="16.6" height="16.6" x="330.7" y="352" fill="#FFF" opacity=".5"/><rect width="16.6" height="16.6" x="363.9" y="352" fill="#FFF" opacity=".5"/><rect width="16.6" height="16.6" x="397" y="352" fill="#FFF" opacity=".5"/><rect width="16.6" height="16.6" x="430.2" y="352" fill="#FFF" opacity=".5"/><rect width="16.6" height="16.6" x="463.4" y="352" fill="#FFF" opacity=".5"/><circle cx="254" cy="252" r="40" fill="#E03232"/></svg>